# xmcd
#
# Track frame offsets: 
#        150
#        13777
#        27137
#        46405
#        63527
#        80875
#        102405
#        123562
#        140755
#        157877
#        174937
#        188865
#        209957
#        230525
#
# Disc length: 3319 seconds
#
# Revision: 1
# Processed by: cddbd v1.5.2PL0 Copyright (c) Steve Scherf et al.
# Submitted via: ExactAudioCopy v0.99pb5
#
DISCID=cb0cf50e
DTITLE=Adriano Celentano - Soli
DYEAR=1987
DGENRE=Rock
TTITLE0=Chi non lavora non fa l'amore
TTITLE1=Addormentarmi così
TTITLE2=Sotto le lenzuola
TTITLE3=Straordinariamente
TTITLE4=Lirica d'inverno
TTITLE5=L'unica chance
TTITLE6=Un'altra volta chiudi la porta
TTITLE7=Prisencolinensinanciusol
TTITLE8=Viola
TTITLE9=Bellissima
TTITLE10=Svalutation
TTITLE11=La barca
TTITLE12=Ti Avrò
TTITLE13=Soli
EXTD=
EXTT0=\n
EXTT1=
EXTT2=
EXTT3=
EXTT4=
EXTT5=
EXTT6=
EXTT7=
EXTT8=
EXTT9=
EXTT10=
EXTT11=
EXTT12=
EXTT13=
PLAYORDER=
